<svg width="22" height="22" viewBox="0 0 22 22" fill="none" xmlns="http://www.w3.org/2000/svg">
<path fill-rule="evenodd" clip-rule="evenodd" d="M20.8603 1.03928C20.4867 0.884473 20.1679 0.94845 19.9033 1.23121L18.126 2.99446C17.1502 2.07424 16.0366 1.36063 14.7831 0.855106C13.5293 0.349373 12.233 0.0961914 10.8935 0.0961914C9.47089 0.0961914 8.11332 0.374125 6.81867 0.93041C5.52487 1.48586 4.4081 2.23324 3.469 3.17212C2.53074 4.11122 1.78273 5.22799 1.22729 6.5218C0.67079 7.81644 0.393066 9.17422 0.393066 10.5966C0.393066 12.0182 0.67079 13.3759 1.22729 14.6706C1.78357 15.9652 2.53074 17.0812 3.469 18.0203C4.4081 18.9583 5.52487 19.7065 6.81867 20.262C8.11332 20.8183 9.47089 21.0962 10.8935 21.0962C12.4608 21.0962 13.9514 20.7658 15.3639 20.1047C16.7764 19.4443 17.9803 18.5126 18.9733 17.309C19.0463 17.2179 19.0807 17.1156 19.0756 17.0017C19.0716 16.8878 19.0282 16.7944 18.9462 16.7214L17.0733 14.8344C16.9724 14.7524 16.8593 14.7115 16.7316 14.7115C16.5856 14.7295 16.4807 14.7845 16.4169 14.8762C15.7515 15.7423 14.9362 16.4118 13.9694 16.8861C13.0033 17.3597 11.9782 17.5965 10.8935 17.5965C9.94537 17.5965 9.04088 17.4122 8.1796 17.0426C7.31853 16.674 6.57283 16.175 5.94439 15.5457C5.31594 14.9173 4.81692 14.1716 4.44732 13.3103C4.07773 12.4492 3.89356 11.5447 3.89356 10.5966C3.89356 9.64849 4.07857 8.744 4.44732 7.88272C4.81608 7.02166 5.31511 6.27596 5.94439 5.64751C6.57367 5.01823 7.31853 4.51921 8.1796 4.15066C9.04088 3.78106 9.94537 3.59668 10.8935 3.59668C12.7255 3.59668 14.3159 4.22093 15.6655 5.46985L13.7777 7.35602C13.4958 7.62954 13.4318 7.94418 13.5866 8.2991C13.7416 8.66366 14.0103 8.84637 14.3938 8.84637H20.5186C20.7554 8.84637 20.9603 8.75953 21.134 8.58668C21.3069 8.41384 21.3929 8.20806 21.3929 7.97124V1.84644C21.3929 1.46383 21.216 1.19513 20.8603 1.03928Z" fill="#E25A76"/>
</svg>
